<?xml version="1.0" encoding="UTF-8" standalone="no"?>
<!DOCTYPE svg PUBLIC "-//W3C//DTD SVG 1.1//EN"
 "http://www.w3.org/Graphics/SVG/1.1/DTD/svg11.dtd">
<!-- Generated by graphviz version 12.2.1 (20241206.2353)
 -->
<!-- Pages: 1 -->
<svg width="3353pt" height="749pt"
 viewBox="0.00 0.00 3353.17 749.40" xmlns="http://www.w3.org/2000/svg" xmlns:xlink="http://www.w3.org/1999/xlink">
<g id="graph0" class="graph" transform="scale(1 1) rotate(0) translate(4 745.4)">
<polygon fill="white" stroke="none" points="-4,4 -4,-745.4 3349.17,-745.4 3349.17,4 -4,4"/>
<g id="clust1" class="cluster">
<title>clusterdate (100)</title>
<path fill="none" stroke="black" d="M1244.03,-376.36C1244.03,-376.36 1400.03,-376.36 1400.03,-376.36 1406.03,-376.36 1412.03,-382.36 1412.03,-388.36 1412.03,-388.36 1412.03,-604.09 1412.03,-604.09 1412.03,-610.09 1406.03,-616.09 1400.03,-616.09 1400.03,-616.09 1244.03,-616.09 1244.03,-616.09 1238.03,-616.09 1232.03,-610.09 1232.03,-604.09 1232.03,-604.09 1232.03,-388.36 1232.03,-388.36 1232.03,-382.36 1238.03,-376.36 1244.03,-376.36"/>
<text text-anchor="middle" x="1376.28" y="-383.56" font-family="Times,serif" font-size="14.00">date (100)</text>
</g>
<g id="clust2" class="cluster">
<title>clustergeo (10) x long_term_periodic_m (79)</title>
<path fill="none" stroke="black" d="M330.03,-506.18C330.03,-506.18 644.03,-506.18 644.03,-506.18 650.03,-506.18 656.03,-512.18 656.03,-518.18 656.03,-518.18 656.03,-721.4 656.03,-721.4 656.03,-727.4 650.03,-733.4 644.03,-733.4 644.03,-733.4 330.03,-733.4 330.03,-733.4 324.03,-733.4 318.03,-727.4 318.03,-721.4 318.03,-721.4 318.03,-518.18 318.03,-518.18 318.03,-512.18 324.03,-506.18 330.03,-506.18"/>
<text text-anchor="middle" x="542.28" y="-513.38" font-family="Times,serif" font-size="14.00">geo (10) x long_term_periodic_m (79)</text>
</g>
<g id="clust3" class="cluster">
<title>clusterdate (100) x geo (10)</title>
<path fill="none" stroke="black" d="M433.03,-8C433.03,-8 903.03,-8 903.03,-8 909.03,-8 915.03,-14 915.03,-20 915.03,-20 915.03,-474.27 915.03,-474.27 915.03,-480.27 909.03,-486.27 903.03,-486.27 903.03,-486.27 433.03,-486.27 433.03,-486.27 427.03,-486.27 421.03,-480.27 421.03,-474.27 421.03,-474.27 421.03,-20 421.03,-20 421.03,-14 427.03,-8 433.03,-8"/>
<text text-anchor="middle" x="849.28" y="-15.2" font-family="Times,serif" font-size="14.00">date (100) x geo (10)</text>
</g>
<g id="clust4" class="cluster">
<title>clusterweekly_periodic (6)</title>
<path fill="none" stroke="black" d="M1028.03,-494.27C1028.03,-494.27 1212.03,-494.27 1212.03,-494.27 1218.03,-494.27 1224.03,-500.27 1224.03,-506.27 1224.03,-506.27 1224.03,-604.09 1224.03,-604.09 1224.03,-610.09 1218.03,-616.09 1212.03,-616.09 1212.03,-616.09 1028.03,-616.09 1028.03,-616.09 1022.03,-616.09 1016.03,-610.09 1016.03,-604.09 1016.03,-604.09 1016.03,-506.27 1016.03,-506.27 1016.03,-500.27 1022.03,-494.27 1028.03,-494.27"/>
<text text-anchor="middle" x="1161.28" y="-501.47" font-family="Times,serif" font-size="14.00">weekly_periodic (6)</text>
</g>
<g id="clust5" class="cluster">
<title>clustergeo (10)</title>
<path fill="none" stroke="black" d="M94.03,-364.45C94.03,-364.45 340.03,-364.45 340.03,-364.45 346.03,-364.45 352.03,-370.45 352.03,-376.45 352.03,-376.45 352.03,-474.27 352.03,-474.27 352.03,-480.27 346.03,-486.27 340.03,-486.27 340.03,-486.27 94.03,-486.27 94.03,-486.27 88.03,-486.27 82.03,-480.27 82.03,-474.27 82.03,-474.27 82.03,-376.45 82.03,-376.45 82.03,-370.45 88.03,-364.45 94.03,-364.45"/>
<text text-anchor="middle" x="321.16" y="-371.65" font-family="Times,serif" font-size="14.00">geo (10)</text>
</g>
<g id="clust6" class="cluster">
<title>clustergeo (10) x short_term_periodic_ctr_m (79)</title>
<path fill="none" stroke="black" d="M1444.03,-254.54C1444.03,-254.54 1792.03,-254.54 1792.03,-254.54 1798.03,-254.54 1804.03,-260.54 1804.03,-266.54 1804.03,-266.54 1804.03,-474.27 1804.03,-474.27 1804.03,-480.27 1798.03,-486.27 1792.03,-486.27 1792.03,-486.27 1444.03,-486.27 1444.03,-486.27 1438.03,-486.27 1432.03,-480.27 1432.03,-474.27 1432.03,-474.27 1432.03,-266.54 1432.03,-266.54 1432.03,-260.54 1438.03,-254.54 1444.03,-254.54"/>
<text text-anchor="middle" x="1678.28" y="-261.74" font-family="Times,serif" font-size="14.00">geo (10) x short_term_periodic_ctr_m (79)</text>
</g>
<g id="clust7" class="cluster">
<title>clustergeo (10) x long_term_periodic_ctr_m (79)</title>
<path fill="none" stroke="black" d="M2341.03,-254.54C2341.03,-254.54 2685.03,-254.54 2685.03,-254.54 2691.03,-254.54 2697.03,-260.54 2697.03,-266.54 2697.03,-266.54 2697.03,-474.27 2697.03,-474.27 2697.03,-480.27 2691.03,-486.27 2685.03,-486.27 2685.03,-486.27 2341.03,-486.27 2341.03,-486.27 2335.03,-486.27 2329.03,-480.27 2329.03,-474.27 2329.03,-474.27 2329.03,-266.54 2329.03,-266.54 2329.03,-260.54 2335.03,-254.54 2341.03,-254.54"/>
<text text-anchor="middle" x="2572.78" y="-261.74" font-family="Times,serif" font-size="14.00">geo (10) x long_term_periodic_ctr_m (79)</text>
</g>
<!-- ctr_noise -->
<g id="node1" class="node">
<title>ctr_noise</title>
<ellipse fill="none" stroke="black" cx="1358.03" cy="-567.43" rx="46.32" ry="40.66"/>
<text text-anchor="middle" x="1358.03" y="-578.88" font-family="Times,serif" font-size="14.00">ctr_noise</text>
<text text-anchor="middle" x="1358.03" y="-562.38" font-family="Times,serif" font-size="14.00">~</text>
<text text-anchor="middle" x="1358.03" y="-545.88" font-family="Times,serif" font-size="14.00">Normal</text>
</g>
<!-- clicks_obs -->
<g id="node23" class="node">
<title>clicks_obs</title>
<ellipse fill="none" stroke="black" cx="835.03" cy="-81.16" rx="51.62" ry="40.66"/>
<text text-anchor="middle" x="835.03" y="-92.61" font-family="Times,serif" font-size="14.00">clicks_obs</text>
<text text-anchor="middle" x="835.03" y="-76.11" font-family="Times,serif" font-size="14.00">~</text>
<text text-anchor="middle" x="835.03" y="-59.61" font-family="Times,serif" font-size="14.00">Binomial</text>
</g>
<!-- ctr_noise&#45;&gt;clicks_obs -->
<g id="edge33" class="edge">
<title>ctr_noise&#45;&gt;clicks_obs</title>
<path fill="none" stroke="black" d="M1404.41,-566.21C1685.16,-564.69 3147.58,-553.56 3212.03,-486.27 3249.48,-447.17 3246.05,-406.57 3212.03,-364.45 3061.76,-178.42 1259.9,-98.7 898.07,-84.52"/>
<polygon fill="black" stroke="black" points="898.44,-81.03 888.31,-84.14 898.17,-88.02 898.44,-81.03"/>
</g>
<!-- time -->
<g id="node2" class="node">
<title>time</title>
<path fill="lightgrey" stroke="black" d="M1282.03,-596.18C1282.03,-596.18 1252.03,-596.18 1252.03,-596.18 1246.03,-596.18 1240.03,-590.18 1240.03,-584.18 1240.03,-584.18 1240.03,-550.68 1240.03,-550.68 1240.03,-544.68 1246.03,-538.68 1252.03,-538.68 1252.03,-538.68 1282.03,-538.68 1282.03,-538.68 1288.03,-538.68 1294.03,-544.68 1294.03,-550.68 1294.03,-550.68 1294.03,-584.18 1294.03,-584.18 1294.03,-590.18 1288.03,-596.18 1282.03,-596.18"/>
<text text-anchor="middle" x="1267.03" y="-578.88" font-family="Times,serif" font-size="14.00">time</text>
<text text-anchor="middle" x="1267.03" y="-562.38" font-family="Times,serif" font-size="14.00">~</text>
<text text-anchor="middle" x="1267.03" y="-545.88" font-family="Times,serif" font-size="14.00">Data</text>
</g>
<!-- weekly_periodic -->
<g id="node3" class="node">
<title>weekly_periodic</title>
<polygon fill="none" stroke="black" points="1346.03,-466.36 1240.03,-466.36 1240.03,-408.86 1346.03,-408.86 1346.03,-466.36"/>
<text text-anchor="middle" x="1293.03" y="-449.06" font-family="Times,serif" font-size="14.00">weekly_periodic</text>
<text text-anchor="middle" x="1293.03" y="-432.56" font-family="Times,serif" font-size="14.00">~</text>
<text text-anchor="middle" x="1293.03" y="-416.06" font-family="Times,serif" font-size="14.00">Deterministic</text>
</g>
<!-- time&#45;&gt;weekly_periodic -->
<g id="edge7" class="edge">
<title>time&#45;&gt;weekly_periodic</title>
<path fill="none" stroke="black" d="M1272.74,-538.38C1276.36,-520.56 1281.1,-497.25 1285.09,-477.64"/>
<polygon fill="black" stroke="black" points="1288.48,-478.58 1287.04,-468.08 1281.62,-477.18 1288.48,-478.58"/>
</g>
<!-- long_term_periodic -->
<g id="node21" class="node">
<title>long_term_periodic</title>
<polygon fill="none" stroke="black" points="905.66,-466.36 782.41,-466.36 782.41,-408.86 905.66,-408.86 905.66,-466.36"/>
<text text-anchor="middle" x="844.03" y="-449.06" font-family="Times,serif" font-size="14.00">long_term_periodic</text>
<text text-anchor="middle" x="844.03" y="-432.56" font-family="Times,serif" font-size="14.00">~</text>
<text text-anchor="middle" x="844.03" y="-416.06" font-family="Times,serif" font-size="14.00">Deterministic</text>
</g>
<!-- time&#45;&gt;long_term_periodic -->
<g id="edge5" class="edge">
<title>time&#45;&gt;long_term_periodic</title>
<path fill="none" stroke="black" d="M1259.46,-538.23C1253.62,-522.41 1243.81,-503.95 1228.03,-494.27 1198.29,-476.02 947.25,-496.97 914.03,-486.27 904.48,-483.19 895.04,-478.36 886.33,-472.94"/>
<polygon fill="black" stroke="black" points="888.37,-470.09 878.11,-467.46 884.49,-475.92 888.37,-470.09"/>
</g>
<!-- short_term_periodic_ctr -->
<g id="node22" class="node">
<title>short_term_periodic_ctr</title>
<polygon fill="none" stroke="black" points="744.66,-227.23 597.41,-227.23 597.41,-169.73 744.66,-169.73 744.66,-227.23"/>
<text text-anchor="middle" x="671.03" y="-209.93" font-family="Times,serif" font-size="14.00">short_term_periodic_ctr</text>
<text text-anchor="middle" x="671.03" y="-193.43" font-family="Times,serif" font-size="14.00">~</text>
<text text-anchor="middle" x="671.03" y="-176.93" font-family="Times,serif" font-size="14.00">Deterministic</text>
</g>
<!-- time&#45;&gt;short_term_periodic_ctr -->
<g id="edge23" class="edge">
<title>time&#45;&gt;short_term_periodic_ctr</title>
<path fill="none" stroke="black" d="M1274.18,-538.27C1279.56,-522.87 1288.56,-504.83 1303.03,-494.27 1321.92,-480.49 1339.81,-504.02 1355.03,-486.27 1388.56,-447.19 1390.98,-291.42 1355.03,-254.54 1331.72,-230.63 786.51,-246.93 754.03,-239.13 746.63,-237.36 739.1,-234.86 731.75,-231.98"/>
<polygon fill="black" stroke="black" points="733.12,-228.76 722.54,-228.11 730.41,-235.22 733.12,-228.76"/>
</g>
<!-- long_term_periodic_ctr -->
<g id="node26" class="node">
<title>long_term_periodic_ctr</title>
<polygon fill="none" stroke="black" points="907.16,-227.23 762.91,-227.23 762.91,-169.73 907.16,-169.73 907.16,-227.23"/>
<text text-anchor="middle" x="835.03" y="-209.93" font-family="Times,serif" font-size="14.00">long_term_periodic_ctr</text>
<text text-anchor="middle" x="835.03" y="-193.43" font-family="Times,serif" font-size="14.00">~</text>
<text text-anchor="middle" x="835.03" y="-176.93" font-family="Times,serif" font-size="14.00">Deterministic</text>
</g>
<!-- time&#45;&gt;long_term_periodic_ctr -->
<g id="edge28" class="edge">
<title>time&#45;&gt;long_term_periodic_ctr</title>
<path fill="none" stroke="black" d="M1273.82,-538.31C1279.11,-522.72 1288.14,-504.48 1303.03,-494.27 1318.68,-483.54 1375.26,-500.3 1388.03,-486.27 1422.7,-448.19 1422.59,-292.72 1388.03,-254.54 1357.17,-220.45 1065.55,-206.6 918.69,-201.74"/>
<polygon fill="black" stroke="black" points="919.14,-198.26 909.03,-201.43 918.91,-205.25 919.14,-198.26"/>
</g>
<!-- search_volume_obs -->
<g id="node25" class="node">
<title>search_volume_obs</title>
<ellipse fill="none" stroke="black" cx="727.03" cy="-315.79" rx="87.68" ry="40.66"/>
<text text-anchor="middle" x="727.03" y="-327.24" font-family="Times,serif" font-size="14.00">search_volume_obs</text>
<text text-anchor="middle" x="727.03" y="-310.74" font-family="Times,serif" font-size="14.00">~</text>
<text text-anchor="middle" x="727.03" y="-294.24" font-family="Times,serif" font-size="14.00">Poisson</text>
</g>
<!-- weekly_periodic&#45;&gt;search_volume_obs -->
<g id="edge14" class="edge">
<title>weekly_periodic&#45;&gt;search_volume_obs</title>
<path fill="none" stroke="black" d="M1239.68,-412.49C1199.88,-395.73 1143.69,-374.64 1092.03,-364.45 1014.34,-349.12 992.59,-366.48 914.03,-356.45 881.2,-352.26 845.56,-345.32 814.29,-338.4"/>
<polygon fill="black" stroke="black" points="815.43,-335.07 804.9,-336.29 813.89,-341.9 815.43,-335.07"/>
</g>
<!-- short_term_periodic_ctr_scale -->
<g id="node4" class="node">
<title>short_term_periodic_ctr_scale</title>
<ellipse fill="none" stroke="black" cx="1942.03" cy="-437.61" rx="127.99" ry="40.66"/>
<text text-anchor="middle" x="1942.03" y="-449.06" font-family="Times,serif" font-size="14.00">short_term_periodic_ctr_scale</text>
<text text-anchor="middle" x="1942.03" y="-432.56" font-family="Times,serif" font-size="14.00">~</text>
<text text-anchor="middle" x="1942.03" y="-416.06" font-family="Times,serif" font-size="14.00">Exponential</text>
</g>
<!-- short_term_periodic_ctr_hsgp_coefs -->
<g id="node29" class="node">
<title>short_term_periodic_ctr_hsgp_coefs</title>
<polygon fill="none" stroke="black" points="1760.41,-344.54 1545.66,-344.54 1545.66,-287.04 1760.41,-287.04 1760.41,-344.54"/>
<text text-anchor="middle" x="1653.03" y="-327.24" font-family="Times,serif" font-size="14.00">short_term_periodic_ctr_hsgp_coefs</text>
<text text-anchor="middle" x="1653.03" y="-310.74" font-family="Times,serif" font-size="14.00">~</text>
<text text-anchor="middle" x="1653.03" y="-294.24" font-family="Times,serif" font-size="14.00">Deterministic</text>
</g>
<!-- short_term_periodic_ctr_scale&#45;&gt;short_term_periodic_ctr_hsgp_coefs -->
<g id="edge19" class="edge">
<title>short_term_periodic_ctr_scale&#45;&gt;short_term_periodic_ctr_hsgp_coefs</title>
<path fill="none" stroke="black" d="M1882.56,-401.35C1859.74,-388.69 1833.14,-374.95 1808.03,-364.45 1794.45,-358.77 1779.94,-353.42 1765.46,-348.5"/>
<polygon fill="black" stroke="black" points="1766.97,-345.32 1756.37,-345.48 1764.76,-351.96 1766.97,-345.32"/>
</g>
<!-- daily_geo_shocks_search_volume_sigma -->
<g id="node5" class="node">
<title>daily_geo_shocks_search_volume_sigma</title>
<ellipse fill="none" stroke="black" cx="835.03" cy="-567.43" rx="170.94" ry="40.66"/>
<text text-anchor="middle" x="835.03" y="-578.88" font-family="Times,serif" font-size="14.00">daily_geo_shocks_search_volume_sigma</text>
<text text-anchor="middle" x="835.03" y="-562.38" font-family="Times,serif" font-size="14.00">~</text>
<text text-anchor="middle" x="835.03" y="-545.88" font-family="Times,serif" font-size="14.00">HalfCauchy</text>
</g>
<!-- daily_geo_shocks_search_volume -->
<g id="node24" class="node">
<title>daily_geo_shocks_search_volume</title>
<ellipse fill="none" stroke="black" cx="622.03" cy="-437.61" rx="142.84" ry="40.66"/>
<text text-anchor="middle" x="622.03" y="-449.06" font-family="Times,serif" font-size="14.00">daily_geo_shocks_search_volume</text>
<text text-anchor="middle" x="622.03" y="-432.56" font-family="Times,serif" font-size="14.00">~</text>
<text text-anchor="middle" x="622.03" y="-416.06" font-family="Times,serif" font-size="14.00">Normal</text>
</g>
<!-- daily_geo_shocks_search_volume_sigma&#45;&gt;daily_geo_shocks_search_volume -->
<g id="edge9" class="edge">
<title>daily_geo_shocks_search_volume_sigma&#45;&gt;daily_geo_shocks_search_volume</title>
<path fill="none" stroke="black" d="M772.85,-529.11C747.59,-513.96 718.28,-496.37 692.26,-480.75"/>
<polygon fill="black" stroke="black" points="694.13,-477.79 683.75,-475.65 690.53,-483.79 694.13,-477.79"/>
</g>
<!-- base_volume_random_effects_sigma -->
<g id="node6" class="node">
<title>base_volume_random_effects_sigma</title>
<ellipse fill="none" stroke="black" cx="155.03" cy="-567.43" rx="155.03" ry="40.66"/>
<text text-anchor="middle" x="155.03" y="-578.88" font-family="Times,serif" font-size="14.00">base_volume_random_effects_sigma</text>
<text text-anchor="middle" x="155.03" y="-562.38" font-family="Times,serif" font-size="14.00">~</text>
<text text-anchor="middle" x="155.03" y="-545.88" font-family="Times,serif" font-size="14.00">HalfNormal</text>
</g>
<!-- base_volume_random_effects -->
<g id="node28" class="node">
<title>base_volume_random_effects</title>
<ellipse fill="none" stroke="black" cx="217.03" cy="-437.61" rx="126.93" ry="40.66"/>
<text text-anchor="middle" x="217.03" y="-449.06" font-family="Times,serif" font-size="14.00">base_volume_random_effects</text>
<text text-anchor="middle" x="217.03" y="-432.56" font-family="Times,serif" font-size="14.00">~</text>
<text text-anchor="middle" x="217.03" y="-416.06" font-family="Times,serif" font-size="14.00">Normal</text>
</g>
<!-- base_volume_random_effects_sigma&#45;&gt;base_volume_random_effects -->
<g id="edge8" class="edge">
<title>base_volume_random_effects_sigma&#45;&gt;base_volume_random_effects</title>
<path fill="none" stroke="black" d="M174.31,-526.69C180.26,-514.43 186.88,-500.78 193.1,-487.95"/>
<polygon fill="black" stroke="black" points="196.1,-489.78 197.32,-479.25 189.81,-486.72 196.1,-489.78"/>
</g>
<!-- long_term_periodic_ctr_ls -->
<g id="node7" class="node">
<title>long_term_periodic_ctr_ls</title>
<ellipse fill="none" stroke="black" cx="2820.03" cy="-437.61" rx="113.14" ry="40.66"/>
<text text-anchor="middle" x="2820.03" y="-449.06" font-family="Times,serif" font-size="14.00">long_term_periodic_ctr_ls</text>
<text text-anchor="middle" x="2820.03" y="-432.56" font-family="Times,serif" font-size="14.00">~</text>
<text text-anchor="middle" x="2820.03" y="-416.06" font-family="Times,serif" font-size="14.00">Gamma</text>
</g>
<!-- long_term_periodic_ctr_hsgp_coefs -->
<g id="node32" class="node">
<title>long_term_periodic_ctr_hsgp_coefs</title>
<polygon fill="none" stroke="black" points="2653.91,-344.54 2442.16,-344.54 2442.16,-287.04 2653.91,-287.04 2653.91,-344.54"/>
<text text-anchor="middle" x="2548.03" y="-327.24" font-family="Times,serif" font-size="14.00">long_term_periodic_ctr_hsgp_coefs</text>
<text text-anchor="middle" x="2548.03" y="-310.74" font-family="Times,serif" font-size="14.00">~</text>
<text text-anchor="middle" x="2548.03" y="-294.24" font-family="Times,serif" font-size="14.00">Deterministic</text>
</g>
<!-- long_term_periodic_ctr_ls&#45;&gt;long_term_periodic_ctr_hsgp_coefs -->
<g id="edge25" class="edge">
<title>long_term_periodic_ctr_ls&#45;&gt;long_term_periodic_ctr_hsgp_coefs</title>
<path fill="none" stroke="black" d="M2767.93,-401.24C2747.65,-388.49 2723.83,-374.73 2701.03,-364.45 2688.42,-358.77 2674.94,-353.49 2661.4,-348.69"/>
<polygon fill="black" stroke="black" points="2662.58,-345.39 2651.98,-345.43 2660.29,-352 2662.58,-345.39"/>
</g>
<!-- long_term_periodic_scale -->
<g id="node8" class="node">
<title>long_term_periodic_scale</title>
<ellipse fill="none" stroke="black" cx="777.03" cy="-684.75" rx="111.02" ry="40.66"/>
<text text-anchor="middle" x="777.03" y="-696.2" font-family="Times,serif" font-size="14.00">long_term_periodic_scale</text>
<text text-anchor="middle" x="777.03" y="-679.7" font-family="Times,serif" font-size="14.00">~</text>
<text text-anchor="middle" x="777.03" y="-663.2" font-family="Times,serif" font-size="14.00">Exponential</text>
</g>
<!-- long_term_periodic_hsgp_coefs -->
<g id="node18" class="node">
<title>long_term_periodic_hsgp_coefs</title>
<polygon fill="none" stroke="black" points="614.41,-596.18 423.66,-596.18 423.66,-538.68 614.41,-538.68 614.41,-596.18"/>
<text text-anchor="middle" x="519.03" y="-578.88" font-family="Times,serif" font-size="14.00">long_term_periodic_hsgp_coefs</text>
<text text-anchor="middle" x="519.03" y="-562.38" font-family="Times,serif" font-size="14.00">~</text>
<text text-anchor="middle" x="519.03" y="-545.88" font-family="Times,serif" font-size="14.00">Deterministic</text>
</g>
<!-- long_term_periodic_scale&#45;&gt;long_term_periodic_hsgp_coefs -->
<g id="edge3" class="edge">
<title>long_term_periodic_scale&#45;&gt;long_term_periodic_hsgp_coefs</title>
<path fill="none" stroke="black" d="M707.55,-652.69C671.96,-636.78 628.63,-617.41 592.49,-601.26"/>
<polygon fill="black" stroke="black" points="593.95,-598.08 583.39,-597.19 591.09,-604.47 593.95,-598.08"/>
</g>
<!-- base_ctr -->
<g id="node9" class="node">
<title>base_ctr</title>
<ellipse fill="none" stroke="black" cx="3302.03" cy="-198.48" rx="43.13" ry="40.66"/>
<text text-anchor="middle" x="3302.03" y="-209.93" font-family="Times,serif" font-size="14.00">base_ctr</text>
<text text-anchor="middle" x="3302.03" y="-193.43" font-family="Times,serif" font-size="14.00">~</text>
<text text-anchor="middle" x="3302.03" y="-176.93" font-family="Times,serif" font-size="14.00">Normal</text>
</g>
<!-- base_ctr&#45;&gt;clicks_obs -->
<g id="edge32" class="edge">
<title>base_ctr&#45;&gt;clicks_obs</title>
<path fill="none" stroke="black" d="M3270.33,-170.7C3262.51,-165.48 3253.85,-160.73 3245.03,-157.82 3016.7,-82.24 1256.02,-81.38 898.32,-82"/>
<polygon fill="black" stroke="black" points="898.43,-78.5 888.43,-82.02 898.44,-85.5 898.43,-78.5"/>
</g>
<!-- short_term_periodic_ctr_ls -->
<g id="node10" class="node">
<title>short_term_periodic_ctr_ls</title>
<ellipse fill="none" stroke="black" cx="2203.03" cy="-437.61" rx="115.26" ry="40.66"/>
<text text-anchor="middle" x="2203.03" y="-449.06" font-family="Times,serif" font-size="14.00">short_term_periodic_ctr_ls</text>
<text text-anchor="middle" x="2203.03" y="-432.56" font-family="Times,serif" font-size="14.00">~</text>
<text text-anchor="middle" x="2203.03" y="-416.06" font-family="Times,serif" font-size="14.00">Gamma</text>
</g>
<!-- short_term_periodic_ctr_ls&#45;&gt;short_term_periodic_ctr_hsgp_coefs -->
<g id="edge21" class="edge">
<title>short_term_periodic_ctr_ls&#45;&gt;short_term_periodic_ctr_hsgp_coefs</title>
<path fill="none" stroke="black" d="M2152.53,-400.8C2130.88,-387.19 2104.69,-372.93 2079.03,-364.45 2023.9,-346.23 1877.67,-332.51 1771.9,-324.58"/>
<polygon fill="black" stroke="black" points="1772.25,-321.1 1762.01,-323.85 1771.73,-328.08 1772.25,-321.1"/>
</g>
<!-- base_volume_mu -->
<g id="node11" class="node">
<title>base_volume_mu</title>
<ellipse fill="none" stroke="black" cx="1003.03" cy="-437.61" rx="79.73" ry="40.66"/>
<text text-anchor="middle" x="1003.03" y="-449.06" font-family="Times,serif" font-size="14.00">base_volume_mu</text>
<text text-anchor="middle" x="1003.03" y="-432.56" font-family="Times,serif" font-size="14.00">~</text>
<text text-anchor="middle" x="1003.03" y="-416.06" font-family="Times,serif" font-size="14.00">Normal</text>
</g>
<!-- base_volume_mu&#45;&gt;search_volume_obs -->
<g id="edge10" class="edge">
<title>base_volume_mu&#45;&gt;search_volume_obs</title>
<path fill="none" stroke="black" d="M968.56,-400.58C954.33,-387.51 936.97,-373.71 919.03,-364.45 889,-348.95 853.69,-338.32 821.6,-331.12"/>
<polygon fill="black" stroke="black" points="822.38,-327.71 811.87,-329.03 820.91,-334.55 822.38,-327.71"/>
</g>
<!-- ctr_noise_sigma -->
<g id="node12" class="node">
<title>ctr_noise_sigma</title>
<ellipse fill="none" stroke="black" cx="1358.03" cy="-684.75" rx="74.42" ry="40.66"/>
<text text-anchor="middle" x="1358.03" y="-696.2" font-family="Times,serif" font-size="14.00">ctr_noise_sigma</text>
<text text-anchor="middle" x="1358.03" y="-679.7" font-family="Times,serif" font-size="14.00">~</text>
<text text-anchor="middle" x="1358.03" y="-663.2" font-family="Times,serif" font-size="14.00">HalfNormal</text>
</g>
<!-- ctr_noise_sigma&#45;&gt;ctr_noise -->
<g id="edge29" class="edge">
<title>ctr_noise_sigma&#45;&gt;ctr_noise</title>
<path fill="none" stroke="black" d="M1358.03,-643.74C1358.03,-635.95 1358.03,-627.7 1358.03,-619.61"/>
<polygon fill="black" stroke="black" points="1361.53,-619.88 1358.03,-609.88 1354.53,-619.88 1361.53,-619.88"/>
</g>
<!-- competitor_pressure -->
<g id="node13" class="node">
<title>competitor_pressure</title>
<ellipse fill="none" stroke="black" cx="1013.03" cy="-315.79" rx="89.8" ry="40.66"/>
<text text-anchor="middle" x="1013.03" y="-327.24" font-family="Times,serif" font-size="14.00">competitor_pressure</text>
<text text-anchor="middle" x="1013.03" y="-310.74" font-family="Times,serif" font-size="14.00">~</text>
<text text-anchor="middle" x="1013.03" y="-294.24" font-family="Times,serif" font-size="14.00">HalfCauchy</text>
</g>
<!-- impressions_obs -->
<g id="node19" class="node">
<title>impressions_obs</title>
<ellipse fill="none" stroke="black" cx="504.03" cy="-198.48" rx="75.48" ry="40.66"/>
<text text-anchor="middle" x="504.03" y="-209.93" font-family="Times,serif" font-size="14.00">impressions_obs</text>
<text text-anchor="middle" x="504.03" y="-193.43" font-family="Times,serif" font-size="14.00">~</text>
<text text-anchor="middle" x="504.03" y="-176.93" font-family="Times,serif" font-size="14.00">Binomial</text>
</g>
<!-- competitor_pressure&#45;&gt;impressions_obs -->
<g id="edge15" class="edge">
<title>competitor_pressure&#45;&gt;impressions_obs</title>
<path fill="none" stroke="black" d="M969.08,-279.91C954.05,-269.87 936.58,-260.13 919.03,-254.54 848.87,-232.2 659.49,-256.91 588.03,-239.13 581.15,-237.42 574.16,-235.13 567.29,-232.5"/>
<polygon fill="black" stroke="black" points="568.62,-229.27 558.04,-228.72 565.97,-235.74 568.62,-229.27"/>
</g>
<!-- long_term_periodic_ls -->
<g id="node14" class="node">
<title>long_term_periodic_ls</title>
<ellipse fill="none" stroke="black" cx="209.03" cy="-684.75" rx="98.29" ry="40.66"/>
<text text-anchor="middle" x="209.03" y="-696.2" font-family="Times,serif" font-size="14.00">long_term_periodic_ls</text>
<text text-anchor="middle" x="209.03" y="-679.7" font-family="Times,serif" font-size="14.00">~</text>
<text text-anchor="middle" x="209.03" y="-663.2" font-family="Times,serif" font-size="14.00">Gamma</text>
</g>
<!-- long_term_periodic_ls&#45;&gt;long_term_periodic_hsgp_coefs -->
<g id="edge2" class="edge">
<title>long_term_periodic_ls&#45;&gt;long_term_periodic_hsgp_coefs</title>
<path fill="none" stroke="black" d="M280.74,-656.58C291.88,-652.38 303.26,-648.11 314.03,-644.09 352.53,-629.71 395.14,-613.96 431.5,-600.57"/>
<polygon fill="black" stroke="black" points="432.48,-603.94 440.66,-597.2 430.06,-597.37 432.48,-603.94"/>
</g>
<!-- search_volume_multiplier -->
<g id="node15" class="node">
<title>search_volume_multiplier</title>
<ellipse fill="none" stroke="black" cx="1233.03" cy="-315.79" rx="112.61" ry="40.66"/>
<text text-anchor="middle" x="1233.03" y="-327.24" font-family="Times,serif" font-size="14.00">search_volume_multiplier</text>
<text text-anchor="middle" x="1233.03" y="-310.74" font-family="Times,serif" font-size="14.00">~</text>
<text text-anchor="middle" x="1233.03" y="-294.24" font-family="Times,serif" font-size="14.00">Beta</text>
</g>
<!-- search_volume_multiplier&#45;&gt;impressions_obs -->
<g id="edge16" class="edge">
<title>search_volume_multiplier&#45;&gt;impressions_obs</title>
<path fill="none" stroke="black" d="M1176.54,-280.35C1156.83,-270.07 1134.11,-260.08 1112.03,-254.54 999.04,-226.21 701.32,-266.29 588.03,-239.13 580.87,-237.42 573.59,-235.05 566.45,-232.32"/>
<polygon fill="black" stroke="black" points="568.13,-229.22 557.55,-228.67 565.47,-235.7 568.13,-229.22"/>
</g>
<!-- long_term_periodic_ctr_scale -->
<g id="node16" class="node">
<title>long_term_periodic_ctr_scale</title>
<ellipse fill="none" stroke="black" cx="3077.03" cy="-437.61" rx="125.87" ry="40.66"/>
<text text-anchor="middle" x="3077.03" y="-449.06" font-family="Times,serif" font-size="14.00">long_term_periodic_ctr_scale</text>
<text text-anchor="middle" x="3077.03" y="-432.56" font-family="Times,serif" font-size="14.00">~</text>
<text text-anchor="middle" x="3077.03" y="-416.06" font-family="Times,serif" font-size="14.00">Exponential</text>
</g>
<!-- long_term_periodic_ctr_scale&#45;&gt;long_term_periodic_ctr_hsgp_coefs -->
<g id="edge26" class="edge">
<title>long_term_periodic_ctr_scale&#45;&gt;long_term_periodic_ctr_hsgp_coefs</title>
<path fill="none" stroke="black" d="M3021.29,-400.8C2997.71,-387.28 2969.4,-373.09 2942.03,-364.45 2851.82,-335.99 2745.05,-324.35 2665.43,-319.67"/>
<polygon fill="black" stroke="black" points="2666.07,-316.2 2655.89,-319.14 2665.68,-323.19 2666.07,-316.2"/>
</g>
<!-- long_term_periodic_hsgp_coefs_offset -->
<g id="node17" class="node">
<title>long_term_periodic_hsgp_coefs_offset</title>
<ellipse fill="none" stroke="black" cx="487.03" cy="-684.75" rx="161.4" ry="40.66"/>
<text text-anchor="middle" x="487.03" y="-696.2" font-family="Times,serif" font-size="14.00">long_term_periodic_hsgp_coefs_offset</text>
<text text-anchor="middle" x="487.03" y="-679.7" font-family="Times,serif" font-size="14.00">~</text>
<text text-anchor="middle" x="487.03" y="-663.2" font-family="Times,serif" font-size="14.00">Normal</text>
</g>
<!-- long_term_periodic_hsgp_coefs_offset&#45;&gt;long_term_periodic_hsgp_coefs -->
<g id="edge1" class="edge">
<title>long_term_periodic_hsgp_coefs_offset&#45;&gt;long_term_periodic_hsgp_coefs</title>
<path fill="none" stroke="black" d="M498.14,-643.74C501.42,-631.91 505.01,-618.98 508.27,-607.22"/>
<polygon fill="black" stroke="black" points="511.57,-608.42 510.87,-597.85 504.82,-606.55 511.57,-608.42"/>
</g>
<!-- long_term_periodic_hsgp_coefs&#45;&gt;long_term_periodic -->
<g id="edge4" class="edge">
<title>long_term_periodic_hsgp_coefs&#45;&gt;long_term_periodic</title>
<path fill="none" stroke="black" d="M560.85,-538.29C586.8,-522.39 621.49,-503.82 655.03,-494.27 706.01,-479.75 723.93,-503.57 774.03,-486.27 783.22,-483.1 792.34,-478.38 800.8,-473.14"/>
<polygon fill="black" stroke="black" points="802.72,-476.06 809.14,-467.63 798.86,-470.22 802.72,-476.06"/>
</g>
<!-- impressions_obs&#45;&gt;clicks_obs -->
<g id="edge30" class="edge">
<title>impressions_obs&#45;&gt;clicks_obs</title>
<path fill="none" stroke="black" d="M558.66,-170.3C568.34,-165.88 578.41,-161.54 588.03,-157.82 650.64,-133.59 724.47,-111.83 775.01,-97.93"/>
<polygon fill="black" stroke="black" points="775.87,-101.33 784.6,-95.32 774.03,-94.57 775.87,-101.33"/>
</g>
<!-- budget -->
<g id="node20" class="node">
<title>budget</title>
<path fill="lightgrey" stroke="black" d="M519.03,-344.54C519.03,-344.54 489.03,-344.54 489.03,-344.54 483.03,-344.54 477.03,-338.54 477.03,-332.54 477.03,-332.54 477.03,-299.04 477.03,-299.04 477.03,-293.04 483.03,-287.04 489.03,-287.04 489.03,-287.04 519.03,-287.04 519.03,-287.04 525.03,-287.04 531.03,-293.04 531.03,-299.04 531.03,-299.04 531.03,-332.54 531.03,-332.54 531.03,-338.54 525.03,-344.54 519.03,-344.54"/>
<text text-anchor="middle" x="504.03" y="-327.24" font-family="Times,serif" font-size="14.00">budget</text>
<text text-anchor="middle" x="504.03" y="-310.74" font-family="Times,serif" font-size="14.00">~</text>
<text text-anchor="middle" x="504.03" y="-294.24" font-family="Times,serif" font-size="14.00">Data</text>
</g>
<!-- budget&#45;&gt;impressions_obs -->
<g id="edge18" class="edge">
<title>budget&#45;&gt;impressions_obs</title>
<path fill="none" stroke="black" d="M504.03,-286.58C504.03,-275.76 504.03,-263.05 504.03,-250.73"/>
<polygon fill="black" stroke="black" points="507.53,-251.1 504.03,-241.1 500.53,-251.1 507.53,-251.1"/>
</g>
<!-- long_term_periodic&#45;&gt;search_volume_obs -->
<g id="edge13" class="edge">
<title>long_term_periodic&#45;&gt;search_volume_obs</title>
<path fill="none" stroke="black" d="M816.83,-408.46C803.89,-395.1 788.19,-378.93 774.03,-364.45 773.03,-363.42 772.01,-362.38 770.98,-361.34"/>
<polygon fill="black" stroke="black" points="773.55,-358.96 764.05,-354.27 768.56,-363.86 773.55,-358.96"/>
</g>
<!-- short_term_periodic_ctr&#45;&gt;clicks_obs -->
<g id="edge31" class="edge">
<title>short_term_periodic_ctr&#45;&gt;clicks_obs</title>
<path fill="none" stroke="black" d="M711.15,-169.27C734.26,-153.02 763.43,-132.51 787.66,-115.47"/>
<polygon fill="black" stroke="black" points="789.61,-118.37 795.78,-109.76 785.59,-112.65 789.61,-118.37"/>
</g>
<!-- daily_geo_shocks_search_volume&#45;&gt;search_volume_obs -->
<g id="edge12" class="edge">
<title>daily_geo_shocks_search_volume&#45;&gt;search_volume_obs</title>
<path fill="none" stroke="black" d="M656.12,-397.71C666.05,-386.38 676.98,-373.91 687.23,-362.22"/>
<polygon fill="black" stroke="black" points="689.59,-364.84 693.54,-355.01 684.32,-360.22 689.59,-364.84"/>
</g>
<!-- search_volume_obs&#45;&gt;impressions_obs -->
<g id="edge17" class="edge">
<title>search_volume_obs&#45;&gt;impressions_obs</title>
<path fill="none" stroke="black" d="M669.02,-284.8C638.05,-268.78 599.86,-249.03 568.02,-232.56"/>
<polygon fill="black" stroke="black" points="569.76,-229.52 559.27,-228.04 566.54,-235.74 569.76,-229.52"/>
</g>
<!-- long_term_periodic_ctr&#45;&gt;clicks_obs -->
<g id="edge34" class="edge">
<title>long_term_periodic_ctr&#45;&gt;clicks_obs</title>
<path fill="none" stroke="black" d="M835.03,-169.27C835.03,-158.44 835.03,-145.73 835.03,-133.41"/>
<polygon fill="black" stroke="black" points="838.53,-133.78 835.03,-123.78 831.53,-133.78 838.53,-133.78"/>
</g>
<!-- weekly_periodic_beta -->
<g id="node27" class="node">
<title>weekly_periodic_beta</title>
<ellipse fill="none" stroke="black" cx="1120.03" cy="-567.43" rx="95.64" ry="40.66"/>
<text text-anchor="middle" x="1120.03" y="-578.88" font-family="Times,serif" font-size="14.00">weekly_periodic_beta</text>
<text text-anchor="middle" x="1120.03" y="-562.38" font-family="Times,serif" font-size="14.00">~</text>
<text text-anchor="middle" x="1120.03" y="-545.88" font-family="Times,serif" font-size="14.00">Laplace</text>
</g>
<!-- weekly_periodic_beta&#45;&gt;weekly_periodic -->
<g id="edge6" class="edge">
<title>weekly_periodic_beta&#45;&gt;weekly_periodic</title>
<path fill="none" stroke="black" d="M1166.85,-531.84C1191.34,-513.74 1221.25,-491.65 1245.8,-473.51"/>
<polygon fill="black" stroke="black" points="1247.74,-476.42 1253.71,-467.67 1243.58,-470.79 1247.74,-476.42"/>
</g>
<!-- base_volume_random_effects&#45;&gt;search_volume_obs -->
<g id="edge11" class="edge">
<title>base_volume_random_effects&#45;&gt;search_volume_obs</title>
<path fill="none" stroke="black" d="M291.09,-404.25C328.18,-389.51 374.21,-373.38 417.03,-364.45 470.66,-353.27 485.76,-363.93 540.03,-356.45 572.68,-351.95 608.13,-344.98 639.3,-338.12"/>
<polygon fill="black" stroke="black" points="639.66,-341.63 648.66,-336.04 638.14,-334.8 639.66,-341.63"/>
</g>
<!-- short_term_periodic_ctr_hsgp_coefs&#45;&gt;short_term_periodic_ctr -->
<g id="edge22" class="edge">
<title>short_term_periodic_ctr_hsgp_coefs&#45;&gt;short_term_periodic_ctr</title>
<path fill="none" stroke="black" d="M1551,-286.59C1502.1,-274.37 1442.46,-261.32 1388.03,-254.54 1248.18,-237.12 891.09,-271.95 754.03,-239.13 746.62,-237.36 739.09,-234.87 731.75,-231.99"/>
<polygon fill="black" stroke="black" points="733.12,-228.77 722.54,-228.12 730.4,-235.23 733.12,-228.77"/>
</g>
<!-- short_term_periodic_ctr_hsgp_coefs_offset -->
<g id="node30" class="node">
<title>short_term_periodic_ctr_hsgp_coefs_offset</title>
<ellipse fill="none" stroke="black" cx="1618.03" cy="-437.61" rx="178.37" ry="40.66"/>
<text text-anchor="middle" x="1618.03" y="-449.06" font-family="Times,serif" font-size="14.00">short_term_periodic_ctr_hsgp_coefs_offset</text>
<text text-anchor="middle" x="1618.03" y="-432.56" font-family="Times,serif" font-size="14.00">~</text>
<text text-anchor="middle" x="1618.03" y="-416.06" font-family="Times,serif" font-size="14.00">Normal</text>
</g>
<!-- short_term_periodic_ctr_hsgp_coefs_offset&#45;&gt;short_term_periodic_ctr_hsgp_coefs -->
<g id="edge20" class="edge">
<title>short_term_periodic_ctr_hsgp_coefs_offset&#45;&gt;short_term_periodic_ctr_hsgp_coefs</title>
<path fill="none" stroke="black" d="M1629.69,-396.71C1633.53,-383.55 1637.8,-368.93 1641.63,-355.83"/>
<polygon fill="black" stroke="black" points="1644.99,-356.82 1644.43,-346.24 1638.27,-354.86 1644.99,-356.82"/>
</g>
<!-- long_term_periodic_ctr_hsgp_coefs_offset -->
<g id="node31" class="node">
<title>long_term_periodic_ctr_hsgp_coefs_offset</title>
<ellipse fill="none" stroke="black" cx="2513.03" cy="-437.61" rx="176.25" ry="40.66"/>
<text text-anchor="middle" x="2513.03" y="-449.06" font-family="Times,serif" font-size="14.00">long_term_periodic_ctr_hsgp_coefs_offset</text>
<text text-anchor="middle" x="2513.03" y="-432.56" font-family="Times,serif" font-size="14.00">~</text>
<text text-anchor="middle" x="2513.03" y="-416.06" font-family="Times,serif" font-size="14.00">Normal</text>
</g>
<!-- long_term_periodic_ctr_hsgp_coefs_offset&#45;&gt;long_term_periodic_ctr_hsgp_coefs -->
<g id="edge24" class="edge">
<title>long_term_periodic_ctr_hsgp_coefs_offset&#45;&gt;long_term_periodic_ctr_hsgp_coefs</title>
<path fill="none" stroke="black" d="M2524.69,-396.71C2528.53,-383.55 2532.8,-368.93 2536.63,-355.83"/>
<polygon fill="black" stroke="black" points="2539.99,-356.82 2539.43,-346.24 2533.27,-354.86 2539.99,-356.82"/>
</g>
<!-- long_term_periodic_ctr_hsgp_coefs&#45;&gt;long_term_periodic_ctr -->
<g id="edge27" class="edge">
<title>long_term_periodic_ctr_hsgp_coefs&#45;&gt;long_term_periodic_ctr</title>
<path fill="none" stroke="black" d="M2441.79,-305.31C2298.12,-292.68 2033.87,-270.13 1808.03,-254.54 1479.06,-231.85 1087.04,-211.79 918.64,-203.51"/>
<polygon fill="black" stroke="black" points="919.06,-200.03 908.9,-203.03 918.72,-207.02 919.06,-200.03"/>
</g>
</g>
</svg>
